<svg xmlns="http://www.w3.org/2000/svg"  viewBox="0 0 50 50" fill="#fff" width="35px" height="35px"><path d="M 24.982422 3 A 1.0001 1.0001 0 0 0 24.535156 3.1132812 L 3.5351562 14.113281 A 1.0001 1.0001 0 0 0 3 15 L 3 18 A 1.0001 1.0001 0 0 0 4 19 L 6.9921875 19 L 6.9921875 37 L 5 37 A 1.0001 1.0001 0 0 0 4 38 L 4 40 L 3 40 A 1.0001 1.0001 0 0 0 2 41 L 2 44 A 1.0001 1.0001 0 0 0 3 45 L 24 45 L 24 43 L 4 43 L 4 42 L 5 42 A 1.0001 1.0001 0 0 0 6 41 L 6 39 L 7.8789062 39 A 1.0081008 1.0081008 0 0 0 8 39.007812 L 12 39.007812 A 1.0081008 1.0081008 0 0 0 12.115234 39 L 17.878906 39 A 1.0081008 1.0081008 0 0 0 18 39.007812 L 22 39.007812 A 1.0081008 1.0081008 0 0 0 22.115234 39 L 24 39 L 24 37 L 23.007812 37 L 23.007812 19 L 26.992188 19 L 26.992188 30.435547 C 27.610188 30.161547 28.289812 30.003953 29.007812 30.001953 L 29.007812 19.007812 L 30.992188 19.007812 L 30.992188 30 L 33.007812 30 L 33.007812 19 L 36.992188 19 L 36.992188 30 L 39.007812 30 L 39.007812 19.007812 L 40.992188 19.007812 L 40.992188 30 L 43.007812 30 L 43.007812 19 L 46 19 A 1.0001 1.0001 0 0 0 47 18 L 47 15 A 1.0001 1.0001 0 0 0 46.464844 14.113281 L 25.464844 3.1132812 A 1.0001 1.0001 0 0 0 24.982422 3 z M 25 5.1308594 L 45 15.605469 L 45 17 L 42.039062 17 C 42.025341 16.999447 42.013858 16.992188 42 16.992188 L 38 16.992188 C 37.986155 16.992188 37.974646 16.999447 37.960938 17 L 32.039062 17 C 32.025341 16.999447 32.013858 16.992188 32 16.992188 L 28 16.992188 C 27.986155 16.992188 27.974646 16.999447 27.960938 17 L 22.121094 17 A 1.0081008 1.0081008 0 0 0 22 16.992188 L 18 16.992188 A 1.0081008 1.0081008 0 0 0 17.884766 17 L 12.121094 17 A 1.0081008 1.0081008 0 0 0 12 16.992188 L 8 16.992188 A 1.0081008 1.0081008 0 0 0 7.8847656 17 L 5 17 L 5 15.605469 L 25 5.1308594 z M 25 8 C 22.802706 8 21 9.8027056 21 12 C 21 14.197294 22.802706 16 25 16 C 27.197294 16 29 14.197294 29 12 C 29 9.8027056 27.197294 8 25 8 z M 25 10 C 26.116414 10 27 10.883586 27 12 C 27 13.116414 26.116414 14 25 14 C 23.883586 14 23 13.116414 23 12 C 23 10.883586 23.883586 10 25 10 z M 13.007812 19 L 16.992188 19 L 16.992188 37 L 13.007812 37 L 13.007812 19 z M 9.0078125 19.007812 L 10.992188 19.007812 L 10.992188 36.992188 L 9.0078125 36.992188 L 9.0078125 19.007812 z M 19.007812 19.007812 L 20.992188 19.007812 L 20.992188 36.992188 L 19.007812 36.992188 L 19.007812 19.007812 z M 29 32 C 27.417221 32 26 33.222937 26 34.865234 L 26 45.134766 C 26 46.717516 27.324925 48 28.908203 48 L 46.091797 48 C 47.673944 48 49.001535 46.716171 49 45.130859 L 49 34.865234 C 49 33.223584 47.583278 32 46 32 L 29 32 z M 29 34 L 46 34 C 46.526722 34 47 34.446885 47 34.865234 L 47 45.132812 C 47.000465 45.613501 46.61765 46 46.091797 46 L 28.908203 46 C 28.381481 46 28 45.612015 28 45.134766 L 28 34.865234 C 28 34.447532 28.474779 34 29 34 z M 41.65625 36 C 41.29325 36 41 36.268609 41 36.599609 L 41 38.400391 C 41 38.731391 41.29425 39 41.65625 39 L 44.283203 39 C 44.646203 39 44.940406 38.731391 44.941406 38.400391 L 44.941406 36.599609 C 44.941406 36.268609 44.646203 36 44.283203 36 L 41.65625 36 z M 31 41 A 1.0001 1.0001 0 1 0 31 43 L 32 43 A 1.0001 1.0001 0 1 0 32 41 L 31 41 z M 35 41 A 1.0001 1.0001 0 1 0 35 43 L 36 43 A 1.0001 1.0001 0 1 0 36 41 L 35 41 z M 39 41 A 1.0001 1.0001 0 1 0 39 43 L 40 43 A 1.0001 1.0001 0 1 0 40 41 L 39 41 z M 43 41 A 1.0001 1.0001 0 1 0 43 43 L 44 43 A 1.0001 1.0001 0 1 0 44 41 L 43 41 z"/></svg>