<svg xmlns="http://www.w3.org/2000/svg" fill="#fff" viewBox="0 0 64 64" width="48px" height="48px"><path d="M40 38c1.104 0 2 .895 2 2 0 1.105-.896 2-2 2-.993 0-15.668 0-16 0-1.104 0-2-.895-2-2 0-1.105.896-2 2-2C24.332 38 39.007 38 40 38zM34 30c1.104 0 2 .895 2 2 0 1.105-.896 2-2 2-.993 0-9.668 0-10 0-1.104 0-2-.895-2-2 0-1.105.896-2 2-2C24.332 30 33.007 30 34 30zM40 22c1.104 0 2 .895 2 2 0 1.105-.896 2-2 2-.993 0-15.668 0-16 0-1.104 0-2-.895-2-2 0-1.105.896-2 2-2C24.332 22 39.007 22 40 22zM50 39c1.104 0 2 .896 2 2v6c0 2.757-2.243 5-5 5h-6c-1.104 0-2-.896-2-2s.896-2 2-2h6c.552 0 1-.449 1-1v-6C48 39.896 48.896 39 50 39zM34 50c0 1.105-.895 2-2 2-1.105 0-2-.895-2-2s.895-2 2-2C33.105 48 34 48.895 34 50zM23 48c1.104 0 2 .896 2 2s-.896 2-2 2h-6c-2.757 0-5-2.243-5-5v-6c0-1.104.896-2 2-2s2 .896 2 2v6c0 .551.448 1 1 1H23zM52 32c0 1.105-.895 2-2 2s-2-.895-2-2c0-1.105.895-2 2-2S52 30.895 52 32zM16 32c0 1.105-.895 2-2 2s-2-.895-2-2c0-1.105.895-2 2-2S16 30.895 16 32zM47 12c2.757 0 5 2.243 5 5v6c0 1.104-.896 2-2 2s-2-.896-2-2v-6c0-.551-.448-1-1-1h-6c-1.104 0-2-.896-2-2s.896-2 2-2H47zM34 14c0 1.105-.895 2-2 2-1.105 0-2-.895-2-2s.895-2 2-2C33.105 12 34 12.895 34 14zM23 12c1.104 0 2 .896 2 2s-.896 2-2 2h-6c-.552 0-1 .449-1 1v6c0 1.104-.896 2-2 2s-2-.896-2-2v-6c0-2.757 2.243-5 5-5H23z"/></svg>