<svg xmlns="http://www.w3.org/2000/svg" fill="#fff"  viewBox="0 0 24 24" width="25px" height="25px"><path d="M3 19v2h11.42c.03-.83.74-1.51 1.71-2H3zM5 17h2V9h2v8h2V9h2v8h2V9h2v4.42c.52-.6 1.21-1.04 2-1.24V9h1 1V6.5l-9-4-9 4v.786V9h2V17zM19 14.27c-.6.35-1 .99-1 1.73 0 .36.1.71.27 1 .31.52.84.9 1.47.98h.01C19.83 17.99 19.91 18 20 18c.17 0 .33-.02.48-.06C21.35 17.72 22 16.93 22 16c0-1.1-.9-2-2-2C19.64 14 19.29 14.1 19 14.27zM21 20.1c-.36-.07-.7-.1-.98-.1-.01 0-.01 0-.02 0-.92 0-2.49.35-3.36 1C16.25 21.29 16 21.64 16 22.05V24h8v-1.95C24 21.01 22.35 20.34 21 20.1z"/></svg>