<svg xmlns="http://www.w3.org/2000/svg"  viewBox="0 0 28 24" fill="#fff" width="35px" height="35px"><path d="M 3.75 0 C 3.336 0 3 0.336 3 0.75 L 3 12.25 L 3 23.25 C 3 23.664 3.336 24 3.75 24 C 4.164 24 4.5 23.664 4.5 23.25 L 4.5 13 L 20 13 C 20.689 13 21.25 12.439953 21.25 11.751953 C 21.25 11.356953 21.071766 10.995719 20.759766 10.761719 L 15.34375 6.6914062 C 15.30975 6.6644063 15.25 6.6039531 15.25 6.5019531 C 15.25 6.3999531 15.309078 6.3383125 15.330078 6.3203125 L 20.761719 2.2402344 C 21.071719 2.0052344 21.25 1.645 21.25 1.25 C 21.25 0.561 20.689 0 20 0 L 3.75 0 z M 4.5 1.5 L 19.246094 1.5 L 14.417969 5.1308594 C 13.993969 5.4628594 13.75 5.962 13.75 6.5 C 13.75 7.038 13.992688 7.5388594 14.429688 7.8808594 L 19.246094 11.5 L 4.5 11.5 L 4.5 1.5 z"/></svg>