<svg width="100" height="100" viewBox="0 0 100 100" fill="#fff" xmlns="http://www.w3.org/2000/svg">
<path d="M59 0C57.8984 0 57 0.898438 57 2V78C57 79.1094 57.8984 80 59 80H67C68.1094 80 69 79.1094 69 78V2C69 0.898438 68.1094 0 67 0H59ZM59 88C57.8984 88 57 88.8906 57 90V98C57 99.1094 57.8984 100 59 100H67C68.1094 100 69 99.1094 69 98V90C69 88.8906 68.1094 88 67 88H59Z" fill="#757575"/>
<path d="M33 0C31.8984 0 31 0.898438 31 2V78C31 79.1094 31.8984 80 33 80H41C42.1094 80 43 79.1094 43 78V2C43 0.898438 42.1094 0 41 0H33ZM33 88C31.8984 88 31 88.8906 31 90V98C31 99.1094 31.8984 100 33 100H41C42.1094 100 43 99.1094 43 98V90C43 88.8906 42.1094 88 41 88H33Z" fill="#757575"/>
</svg>
