<svg width="100" height="100" viewBox="0 0 100 100" fill="none" xmlns="http://www.w3.org/2000/svg">
<g id="icons8-exclamation-mark-25 3">
<path id="Vector" d="M72 0C70.8984 0 70 0.898438 70 2V78C70 79.1094 70.8984 80 72 80H80C81.1094 80 82 79.1094 82 78V2C82 0.898438 81.1094 0 80 0H72ZM72 88C70.8984 88 70 88.8906 70 90V98C70 99.1094 70.8984 100 72 100H80C81.1094 100 82 99.1094 82 98V90C82 88.8906 81.1094 88 80 88H72Z" fill="#c23700"/>
<path id="Vector_2" d="M46 0C44.8984 0 44 0.898438 44 2V78C44 79.1094 44.8984 80 46 80H54C55.1094 80 56 79.1094 56 78V2C56 0.898438 55.1094 0 54 0H46ZM46 88C44.8984 88 44 88.8906 44 90V98C44 99.1094 44.8984 100 46 100H54C55.1094 100 56 99.1094 56 98V90C56 88.8906 55.1094 88 54 88H46Z" fill="#c23700"/>
<path id="Vector_3" d="M20 0C18.8984 0 18 0.898438 18 2V78C18 79.1094 18.8984 80 20 80H28C29.1094 80 30 79.1094 30 78V2C30 0.898438 29.1094 0 28 0H20ZM20 88C18.8984 88 18 88.8906 18 90V98C18 99.1094 18.8984 100 20 100H28C29.1094 100 30 99.1094 30 98V90C30 88.8906 29.1094 88 28 88H20Z" fill="#c23700"/>
</g>
</svg>
