<svg xmlns="http://www.w3.org/2000/svg"  viewBox="0 0 50 50" fill="#fff" width="50px" height="50px"><path d="M 9.0117188 4 C 6.2622027 4 4.0117188 6.2504839 4.0117188 9 L 4.0117188 41 C 4.0117188 43.749516 6.2622027 46 9.0117188 46 L 41.011719 46 C 43.761235 46 46.011719 43.749516 46.011719 41 L 46.011719 9 C 46.011719 6.2504839 43.761235 4 41.011719 4 L 9.0117188 4 z M 9.0117188 6 L 41.011719 6 C 42.680203 6 44.011719 7.3315161 44.011719 9 L 44.011719 41 C 44.011719 42.668484 42.680203 44 41.011719 44 L 9.0117188 44 C 7.3432347 44 6.0117187 42.668484 6.0117188 41 L 6.0117188 9 C 6.0117188 7.3315161 7.3432347 6 9.0117188 6 z M 25 9 C 16.175283 9 9 16.17529 9 25 C 9 33.82471 16.175283 41 25 41 C 33.824717 41 41 33.82471 41 25 C 41 16.17529 33.824717 9 25 9 z M 25 11 C 32.743837 11 39 17.256168 39 25 C 39 32.743832 32.743837 39 25 39 C 17.256163 39 11 32.743832 11 25 C 11 17.256168 17.256163 11 25 11 z M 23.998047 15 C 23.446047 15 23 15.448 23 16 L 23 28 C 23 28.552 23.443094 29 23.996094 29 L 26 29 C 26.552 29 26.998047 28.552 26.998047 28 L 27 16 C 27 15.448 26.554953 15 26.001953 15 L 23.998047 15 z M 23.998047 31 C 23.446047 31 23 31.448 23 32 L 23 34 C 23 34.552 23.445047 35 23.998047 35 L 26.001953 35 C 26.553953 35 27 34.552 27 34 L 27 32 C 27 31.448 26.554953 31 26.001953 31 L 23.998047 31 z"/></svg>