<svg xmlns="http://www.w3.org/2000/svg"  viewBox="0 0 24 24" fill="#fff" width="25px" height="25px"><path d="M22,2C10.367,2,9.09,8.023,9,10.188c-0.566,0.789-1.094,1.566-1.531,2.344c-0.09,0.16-0.164,0.312-0.25,0.469H4v2	c-1.105,0-2,0.895-2,2v3c0,1.105,0.895,2,2,2h7c1.105,0,2-0.895,2-2v-3c0-1.105-0.895-2-2-2v-2H8.812	c0.793-1.375,1.781-2.777,3-4.094C13.047,7.699,14.871,6.117,17,5c-1.426,1.312-5.5,4.977-6.656,7c2.203,0.457,5.863-0.957,7.656-3	c-0.418-0.047-2.422-0.504-3-1c1.109,0.09,3.266,0.051,4,0C20.043,7.125,21.375,4.328,22,2z"/></svg>