<svg xmlns="http://www.w3.org/2000/svg" fill="#fff" viewBox="0 0 24 24" width="48px" height="48px"><path d="M 9 1 L 9 3 L 15 3 L 15 1 L 9 1 z M 12 4 C 7.0225467 4 3 8.0225467 3 13 C 3 17.977453 7.0225467 22 12 22 C 16.977453 22 21 17.977453 21 13 C 21 10.801426 20.213473 8.7901098 18.908203 7.2285156 L 20.412109 5.4375 L 18.880859 4.1503906 L 17.453125 5.8476562 C 15.939846 4.6930478 14.054182 4 12 4 z M 12 6 C 15.910547 6 19 9.0894533 19 13 C 19 16.910547 15.910547 20 12 20 C 8.0894533 20 5 16.910547 5 13 C 5 11.044727 5.7720215 9.2943848 7.0332031 8.0332031 L 10.585938 11.585938 A 2 2 0 0 0 10 13 A 2 2 0 0 0 12 15 A 2 2 0 0 0 14 13 A 2 2 0 0 0 12 11 L 12 6 z"/></svg>