<?xml version="1.0" encoding="iso-8859-1"?>
<!-- Generator: Adobe Illustrator 23.0.3, SVG Export Plug-In . SVG Version: 6.00 Build 0)  -->
<svg version="1.1" xmlns="http://www.w3.org/2000/svg" xmlns:xlink="http://www.w3.org/1999/xlink" x="0px" y="0px"
	 viewBox="0 0 50 50" style="enable-background:new 0 0 50 50;" xml:space="preserve">
<g id="Layer_10" style="display:none;">
	<g style="display:inline;opacity:0.05;">
		<g>
			<circle style="fill:#FFFFFF;" cx="25" cy="25" r="21.5"/>
			<path d="M25,4c11.579,0,21,9.421,21,21s-9.421,21-21,21S4,36.579,4,25S13.421,4,25,4 M25,3C12.85,3,3,12.85,3,25s9.85,22,22,22
				s22-9.85,22-22S37.15,3,25,3L25,3z"/>
		</g>
		<g>
			<rect x="5.5" y="5.5" style="fill:#FFFFFF;" width="39" height="39"/>
			<path d="M44,6v38H6V6H44 M45,5H5v40h40V5L45,5z"/>
		</g>
	</g>
</g>
<g id="filled">
</g>
<g id="outlined">
</g>
<g id="rounded">
</g>
<g id="two_x5F_tone">
</g>
<g id="sharp">
</g>
<g id="win10">
</g>
<g id="ios_x5F_out">
	<path style="fill:none;stroke:#fff;stroke-width:2;stroke-linecap:round;stroke-linejoin:round;stroke-miterlimit:10;" d="M32,4
		h9c1.105,0,2,0.895,2,2v39c0,1.105-0.895,2-2,2H9c-1.105,0-2-0.895-2-2V6c0-1.105,0.895-2,2-2h9"/>
	<path style="fill:none;stroke:#fff;stroke-width:2;stroke-linecap:round;stroke-linejoin:round;stroke-miterlimit:10;" d="M22,4
		c0-1.657,1.343-3,3-3s3,1.343,3,3h4v4H18V4H22z"/>
	
		<polyline style="fill:none;stroke:#fff;stroke-width:2;stroke-linecap:round;stroke-linejoin:round;stroke-miterlimit:10;" points="
		34,21 23,34 16,28 	"/>
</g>
<g id="ios_x5F_filled">
</g>
<g id="color">
</g>
</svg>