<svg xmlns="http://www.w3.org/2000/svg"  viewBox="0 0 128 128" fill="#fff" width="64px" height="64px"><path d="M 18 16 A 2 2 0 0 0 16 18 L 16 66 A 2 2 0 0 0 18 68 L 34 68 A 2 2 0 0 0 34 64 L 20 64 L 20 20 L 84 20 L 84 54 A 2 2 0 0 0 88 54 L 88 18 A 2 2 0 0 0 86 16 L 18 16 z M 41.849609 30.109375 A 2 2 0 0 0 40.589844 30.589844 L 30.589844 40.589844 A 2 2 0 0 0 30.589844 43.410156 L 40.589844 53.410156 A 2 2 0 0 0 43.410156 50.589844 L 36.830078 44 L 72 44 A 2 2 0 0 0 74 42 A 2 2 0 0 0 72 40 L 36.830078 40 L 43.410156 33.410156 A 2 2 0 0 0 41.849609 30.109375 z M 42 60 A 2 2 0 0 0 40 62 L 40 110 A 2 2 0 0 0 42 112 L 110 112 A 2 2 0 0 0 112 110 L 112 62 A 2 2 0 0 0 110 60 L 42 60 z M 44 64 L 108 64 L 108 108 L 44 108 L 44 64 z M 86.125 74.109375 A 2 2 0 0 0 84.589844 77.410156 L 91.169922 84 L 56 84 A 2 2 0 0 0 56 88 L 91.169922 88 L 84.589844 94.589844 A 2 2 0 1 0 87.410156 97.410156 L 97.410156 87.410156 A 2 2 0 0 0 97.410156 84.589844 L 87.410156 74.589844 A 2 2 0 0 0 86.125 74.109375 z"/></svg>