<svg xmlns="http://www.w3.org/2000/svg"  viewBox="0 0 64 64" fill="#fff" width="48px" height="48px"><path d="M 31.546875 10.003906 C 26.356205 10.108888 21.611225 12.016449 17.900391 15.121094 L 14.880859 11.753906 C 14.114859 10.899906 12.702844 11.275438 12.464844 12.398438 L 10.142578 23.339844 C 9.9455781 24.269844 10.709297 25.120391 11.654297 25.025391 L 22.78125 23.90625 C 23.92325 23.79125 24.451547 22.428219 23.685547 21.574219 L 20.580078 18.111328 C 24.069987 15.232511 28.65019 13.634819 33.621094 14.072266 C 42.055094 14.814266 48.964672 21.547891 49.888672 29.962891 C 51.080672 40.816891 42.613 50 32 50 C 22.677 50 15.008797 42.911078 14.091797 33.830078 C 13.987797 32.796078 13.152516 32 12.103516 32 C 10.929516 32 9.9905156 32.994297 10.103516 34.154297 C 11.186516 45.293297 20.577 54 32 54 C 44.974 54 55.324328 42.77 53.861328 29.5 C 52.733328 19.27 44.412969 11.084516 34.167969 10.103516 C 33.284219 10.018891 32.408852 9.9864727 31.546875 10.003906 z M 31.925781 19.998047 C 31.516781 19.998047 31.242188 20.257031 31.242188 20.707031 L 31.242188 22.412109 C 27.437188 22.603109 24.710938 24.731578 24.710938 28.017578 C 24.710938 30.962578 26.661375 32.558281 30.234375 33.363281 L 31.242188 33.595703 L 31.242188 38.558594 C 29.523188 38.408594 28.664516 37.632359 28.228516 36.568359 C 27.846516 35.777359 27.274687 35.341797 26.429688 35.341797 C 25.311687 35.341797 24.642578 36.008234 24.642578 36.990234 C 24.642578 37.249234 24.697641 37.535609 24.806641 37.849609 C 25.474641 39.840609 27.737188 41.462953 31.242188 41.626953 L 31.242188 43.291016 C 31.242188 43.741016 31.516781 44 31.925781 44 C 32.334781 44 32.607422 43.741016 32.607422 43.291016 L 32.607422 41.626953 C 36.534422 41.394953 39.357422 39.309375 39.357422 35.859375 C 39.357422 32.872375 37.407875 31.372344 33.671875 30.527344 L 32.607422 30.294922 L 32.607422 25.494141 C 33.916422 25.672141 34.774641 26.340984 35.306641 27.458984 C 35.742641 28.249984 36.330781 28.644531 37.175781 28.644531 C 38.211781 28.644531 38.892578 28.058203 38.892578 27.158203 C 38.892578 26.871203 38.839813 26.599172 38.757812 26.326172 C 38.102813 24.226172 35.852422 22.630109 32.607422 22.412109 L 32.607422 20.707031 C 32.607422 20.257031 32.334781 19.998047 31.925781 19.998047 z M 31.242188 25.482422 L 31.242188 29.982422 C 29.333187 29.491422 28.529297 28.769063 28.529297 27.664062 C 28.529297 26.559062 29.456187 25.646422 31.242188 25.482422 z M 32.607422 33.908203 C 34.789422 34.454203 35.551734 35.06725 35.552734 36.28125 C 35.552734 37.53525 34.571422 38.408594 32.607422 38.558594 L 32.607422 33.908203 z"/></svg>